<?xml version="1.0" encoding="UTF-8" standalone="no"?>
<!DOCTYPE svg PUBLIC "-//W3C//DTD SVG 1.1//EN"
 "http://www.w3.org/Graphics/SVG/1.1/DTD/svg11.dtd">
<!-- Generated by graphviz version 2.42.3 (20191010.1750)
 -->
<!-- Title: snakemake_dag Pages: 1 -->
<svg width="139pt" height="404pt"
 viewBox="0.00 0.00 138.76 404.00" xmlns="http://www.w3.org/2000/svg" xmlns:xlink="http://www.w3.org/1999/xlink">
<g id="graph0" class="graph" transform="scale(1 1) rotate(0) translate(4 400)">
<title>snakemake_dag</title>
<polygon fill="white" stroke="transparent" points="-4,4 -4,-400 134.76,-400 134.76,4 -4,4"/>
<!-- 0 -->
<g id="node1" class="node">
<title>0</title>
<path fill="none" stroke="#d85656" stroke-width="2" stroke-dasharray="5,2" d="M54.96,-36C54.96,-36 24.96,-36 24.96,-36 18.96,-36 12.96,-30 12.96,-24 12.96,-24 12.96,-12 12.96,-12 12.96,-6 18.96,0 24.96,0 24.96,0 54.96,0 54.96,0 60.96,0 66.96,-6 66.96,-12 66.96,-12 66.96,-24 66.96,-24 66.96,-30 60.96,-36 54.96,-36"/>
<text text-anchor="middle" x="39.96" y="-15" font-family="sans" font-size="10.00">all</text>
</g>
<!-- 1 -->
<g id="node2" class="node">
<title>1</title>
<path fill="none" stroke="#d8ac56" stroke-width="2" stroke-dasharray="5,2" d="M60.32,-180C60.32,-180 19.6,-180 19.6,-180 13.6,-180 7.6,-174 7.6,-168 7.6,-168 7.6,-156 7.6,-156 7.6,-150 13.6,-144 19.6,-144 19.6,-144 60.32,-144 60.32,-144 66.32,-144 72.32,-150 72.32,-156 72.32,-156 72.32,-168 72.32,-168 72.32,-174 66.32,-180 60.32,-180"/>
<text text-anchor="middle" x="39.96" y="-159" font-family="sans" font-size="10.00">create_csv</text>
</g>
<!-- 1&#45;&gt;0 -->
<g id="edge1" class="edge">
<title>1&#45;&gt;0</title>
<path fill="none" stroke="grey" stroke-width="2" d="M31.65,-143.79C27.22,-133.63 22.22,-120.38 19.96,-108 17.09,-92.26 17.09,-87.74 19.96,-72 21.57,-63.2 24.56,-53.95 27.75,-45.7"/>
<polygon fill="grey" stroke="grey" stroke-width="2" points="31.08,-46.79 31.65,-36.21 24.61,-44.12 31.08,-46.79"/>
</g>
<!-- 2 -->
<g id="node3" class="node">
<title>2</title>
<path fill="none" stroke="#59d856" stroke-width="2" stroke-dasharray="5,2" d="M118.57,-108C118.57,-108 41.35,-108 41.35,-108 35.35,-108 29.35,-102 29.35,-96 29.35,-96 29.35,-84 29.35,-84 29.35,-78 35.35,-72 41.35,-72 41.35,-72 118.57,-72 118.57,-72 124.57,-72 130.57,-78 130.57,-84 130.57,-84 130.57,-96 130.57,-96 130.57,-102 124.57,-108 118.57,-108"/>
<text text-anchor="middle" x="79.96" y="-87" font-family="sans" font-size="10.00">produce_histogram</text>
</g>
<!-- 1&#45;&gt;2 -->
<g id="edge4" class="edge">
<title>1&#45;&gt;2</title>
<path fill="none" stroke="grey" stroke-width="2" d="M49.85,-143.7C54.45,-135.64 60.02,-125.89 65.11,-116.98"/>
<polygon fill="grey" stroke="grey" stroke-width="2" points="68.26,-118.52 70.19,-108.1 62.19,-115.05 68.26,-118.52"/>
</g>
<!-- 2&#45;&gt;0 -->
<g id="edge2" class="edge">
<title>2&#45;&gt;0</title>
<path fill="none" stroke="grey" stroke-width="2" d="M70.07,-71.7C65.47,-63.64 59.9,-53.89 54.81,-44.98"/>
<polygon fill="grey" stroke="grey" stroke-width="2" points="57.73,-43.05 49.73,-36.1 51.66,-46.52 57.73,-43.05"/>
</g>
<!-- 3 -->
<g id="node4" class="node">
<title>3</title>
<path fill="none" stroke="#56d8a9" stroke-width="2" stroke-dasharray="5,2" d="M63.49,-252C63.49,-252 16.43,-252 16.43,-252 10.43,-252 4.43,-246 4.43,-240 4.43,-240 4.43,-228 4.43,-228 4.43,-222 10.43,-216 16.43,-216 16.43,-216 63.49,-216 63.49,-216 69.49,-216 75.49,-222 75.49,-228 75.49,-228 75.49,-240 75.49,-240 75.49,-246 69.49,-252 63.49,-252"/>
<text text-anchor="middle" x="39.96" y="-231" font-family="sans" font-size="10.00">create_fasta</text>
</g>
<!-- 3&#45;&gt;1 -->
<g id="edge3" class="edge">
<title>3&#45;&gt;1</title>
<path fill="none" stroke="grey" stroke-width="2" d="M39.96,-215.7C39.96,-207.98 39.96,-198.71 39.96,-190.11"/>
<polygon fill="grey" stroke="grey" stroke-width="2" points="43.46,-190.1 39.96,-180.1 36.46,-190.1 43.46,-190.1"/>
</g>
<!-- 4 -->
<g id="node5" class="node">
<title>4</title>
<path fill="none" stroke="#56a9d8" stroke-width="2" stroke-dasharray="5,2" d="M60.99,-324C60.99,-324 18.93,-324 18.93,-324 12.93,-324 6.93,-318 6.93,-312 6.93,-312 6.93,-300 6.93,-300 6.93,-294 12.93,-288 18.93,-288 18.93,-288 60.99,-288 60.99,-288 66.99,-288 72.99,-294 72.99,-300 72.99,-300 72.99,-312 72.99,-312 72.99,-318 66.99,-324 60.99,-324"/>
<text text-anchor="middle" x="39.96" y="-303" font-family="sans" font-size="10.00">map_reads</text>
</g>
<!-- 4&#45;&gt;3 -->
<g id="edge5" class="edge">
<title>4&#45;&gt;3</title>
<path fill="none" stroke="grey" stroke-width="2" d="M39.96,-287.7C39.96,-279.98 39.96,-270.71 39.96,-262.11"/>
<polygon fill="grey" stroke="grey" stroke-width="2" points="43.46,-262.1 39.96,-252.1 36.46,-262.1 43.46,-262.1"/>
</g>
<!-- 5 -->
<g id="node6" class="node">
<title>5</title>
<path fill="none" stroke="#afd856" stroke-width="2" stroke-dasharray="5,2" d="M67.88,-396C67.88,-396 12.04,-396 12.04,-396 6.04,-396 0.04,-390 0.04,-384 0.04,-384 0.04,-372 0.04,-372 0.04,-366 6.04,-360 12.04,-360 12.04,-360 67.88,-360 67.88,-360 73.88,-360 79.88,-366 79.88,-372 79.88,-372 79.88,-384 79.88,-384 79.88,-390 73.88,-396 67.88,-396"/>
<text text-anchor="middle" x="39.96" y="-375" font-family="sans" font-size="10.00">retrieve_reads</text>
</g>
<!-- 5&#45;&gt;4 -->
<g id="edge6" class="edge">
<title>5&#45;&gt;4</title>
<path fill="none" stroke="grey" stroke-width="2" d="M39.96,-359.7C39.96,-351.98 39.96,-342.71 39.96,-334.11"/>
<polygon fill="grey" stroke="grey" stroke-width="2" points="43.46,-334.1 39.96,-324.1 36.46,-334.1 43.46,-334.1"/>
</g>
</g>
</svg>
